# xmcd CD database file
#
# Track frame offsets:
#	183
#	13838
#	26970
#	47648
#	62768
#	75085
#	83558
#	93970
#	111395
#	125515
#	140590
#	150265
#	163813
#	166290
#	178278
#	192383
#
# Disc length: 2743 seconds
#
# Revision: 0
# Processed by: cddbd v1.5.1PL0 Copyright (c) Steve Scherf et al.
# Submitted via: CDex 1.51
#
DISCID=ce0ab510
DTITLE=Lopez, Trini - Infectious
DYEAR=1989
DGENRE=New Age
TTITLE0=If I Had A Hammer
TTITLE1=Lemon Tree
TTITLE2=La Bamba
TTITLE3=Kansas City
TTITLE4=Let's Think About Living
TTITLE5=Gonna Get Along Without Ya Now
TTITLE6=I'm Coming Home Cindy
TTITLE7=America
TTITLE8=Spanish Harlem
TTITLE9=I Got A Woman
TTITLE10=Let The Four Winds Blow
TTITLE11=Come A Little Bit Closer
TTITLE12=Michael Row The Boat Ashore
TTITLE13=We'll Sing In The Sunshine
TTITLE14=Games People Play
TTITLE15=Don't Let The Sun Catch You Crying
EXTD=YEAR: 1989
EXTT0=
EXTT1=
EXTT2=
EXTT3=
EXTT4=
EXTT5=
EXTT6=
EXTT7=
EXTT8=
EXTT9=
EXTT10=
EXTT11=
EXTT12=
EXTT13=
EXTT14=
EXTT15=
PLAYORDER=
